<svg width="1004" height="153" viewBox="0 0 1004 153" fill="none" xmlns="http://www.w3.org/2000/svg">
<path d="M48.5625 123.562C39.6458 123.562 31.9167 121.667 25.375 117.875C18.875 114.083 13.8542 108.708 10.3125 101.75C6.8125 94.75 5.0625 86.4792 5.0625 76.9375V76.8125C5.0625 67.2292 6.83333 58.9583 10.375 52C13.9167 45.0417 18.9375 39.6875 25.4375 35.9375C31.9792 32.1458 39.6875 30.25 48.5625 30.25C57.4792 30.25 65.1875 32.1458 71.6875 35.9375C78.1875 39.7292 83.2083 45.1042 86.75 52.0625C90.2917 58.9792 92.0625 67.2292 92.0625 76.8125V76.9375C92.0625 86.4792 90.2917 94.75 86.75 101.75C83.2083 108.708 78.1875 114.083 71.6875 117.875C65.2292 121.667 57.5208 123.562 48.5625 123.562ZM48.5625 107.562C53.5625 107.562 57.875 106.312 61.5 103.812C65.125 101.271 67.9167 97.7083 69.875 93.125C71.8333 88.5417 72.8125 83.1458 72.8125 76.9375V76.8125C72.8125 70.5208 71.8125 65.1042 69.8125 60.5625C67.8542 55.9792 65.0417 52.4583 61.375 50C57.75 47.5 53.4792 46.25 48.5625 46.25C43.6458 46.25 39.3542 47.4792 35.6875 49.9375C32.0625 52.3958 29.25 55.9167 27.25 60.5C25.2917 65.0417 24.3125 70.4792 24.3125 76.8125V76.9375C24.3125 83.1875 25.2917 88.6042 27.25 93.1875C29.25 97.7708 32.0625 101.312 35.6875 103.812C39.3125 106.312 43.6042 107.562 48.5625 107.562ZM102.688 143.875V55H120.938V66.6875H121.375C122.583 63.9792 124.167 61.6458 126.125 59.6875C128.125 57.7292 130.438 56.2292 133.062 55.1875C135.729 54.1458 138.646 53.625 141.812 53.625C147.479 53.625 152.354 55.0208 156.438 57.8125C160.521 60.5625 163.667 64.5417 165.875 69.75C168.083 74.9583 169.188 81.1875 169.188 88.4375V88.5C169.188 95.75 168.083 101.979 165.875 107.188C163.708 112.396 160.604 116.396 156.562 119.188C152.521 121.979 147.688 123.375 142.062 123.375C138.896 123.375 135.958 122.854 133.25 121.812C130.542 120.771 128.188 119.312 126.188 117.438C124.188 115.521 122.562 113.229 121.312 110.562H120.938V143.875H102.688ZM135.812 108.25C138.854 108.25 141.479 107.458 143.688 105.875C145.896 104.25 147.604 101.958 148.812 99C150.021 96.0417 150.625 92.5417 150.625 88.5V88.4375C150.625 84.3542 150.021 80.8333 148.812 77.875C147.604 74.9167 145.875 72.6667 143.625 71.125C141.417 69.5417 138.812 68.75 135.812 68.75C132.854 68.75 130.25 69.5625 128 71.1875C125.75 72.7708 124 75.0417 122.75 78C121.5 80.9167 120.875 84.4167 120.875 88.5V88.5625C120.875 92.5625 121.5 96.0417 122.75 99C124.042 101.958 125.792 104.25 128 105.875C130.25 107.458 132.854 108.25 135.812 108.25ZM209.188 123.375C202.354 123.375 196.479 121.979 191.562 119.188C186.646 116.354 182.854 112.333 180.188 107.125C177.562 101.917 176.25 95.75 176.25 88.625V88.5625C176.25 81.4375 177.562 75.2708 180.188 70.0625C182.854 64.8125 186.583 60.7708 191.375 57.9375C196.208 55.0625 201.896 53.625 208.438 53.625C214.979 53.625 220.625 55.0208 225.375 57.8125C230.167 60.5625 233.854 64.4583 236.438 69.5C239.062 74.5417 240.375 80.4375 240.375 87.1875V92.8125H185.188V81.3125H231.75L223.062 92.0625V85.0625C223.062 81.1458 222.458 77.875 221.25 75.25C220.042 72.5833 218.354 70.5833 216.188 69.25C214.062 67.9167 211.583 67.25 208.75 67.25C205.917 67.25 203.396 67.9375 201.188 69.3125C199.021 70.6875 197.312 72.7083 196.062 75.375C194.854 78 194.25 81.2292 194.25 85.0625V92.125C194.25 95.8333 194.854 99 196.062 101.625C197.312 104.25 199.083 106.271 201.375 107.688C203.667 109.062 206.396 109.75 209.562 109.75C212.062 109.75 214.229 109.354 216.062 108.562C217.896 107.771 219.396 106.771 220.562 105.562C221.729 104.354 222.521 103.125 222.938 101.875L223.062 101.5H239.812L239.625 102.188C239.125 104.646 238.146 107.125 236.688 109.625C235.229 112.125 233.25 114.417 230.75 116.5C228.292 118.583 225.271 120.25 221.688 121.5C218.146 122.75 213.979 123.375 209.188 123.375ZM249.812 122V55H268.062V66H268.438C270.188 62.1667 272.771 59.1458 276.188 56.9375C279.604 54.7292 283.833 53.625 288.875 53.625C296.25 53.625 301.938 55.8542 305.938 60.3125C309.979 64.7292 312 70.875 312 78.75V122H293.75V82.5C293.75 78.125 292.708 74.75 290.625 72.375C288.583 69.9583 285.521 68.75 281.438 68.75C278.729 68.75 276.375 69.375 274.375 70.625C272.375 71.8333 270.812 73.5417 269.688 75.75C268.604 77.9583 268.062 80.5417 268.062 83.5V122H249.812Z" fill="black"/>
<path d="M536.938 123.562C528.146 123.562 520.521 121.688 514.062 117.938C507.646 114.188 502.688 108.833 499.188 101.875C495.729 94.875 494 86.5417 494 76.875V76.8125C494 67.1042 495.75 58.7917 499.25 51.875C502.75 44.9167 507.708 39.5833 514.125 35.875C520.542 32.125 528.146 30.25 536.938 30.25C544.229 30.25 550.729 31.6667 556.438 34.5C562.146 37.3333 566.729 41.2292 570.188 46.1875C573.646 51.1042 575.667 56.7708 576.25 63.1875L576.312 63.75H557.938L557.688 62.6875C556.979 59.3542 555.708 56.4583 553.875 54C552.042 51.5417 549.688 49.6458 546.812 48.3125C543.979 46.9375 540.688 46.25 536.938 46.25C532.104 46.25 527.917 47.4792 524.375 49.9375C520.833 52.3958 518.083 55.9167 516.125 60.5C514.208 65.0417 513.25 70.4583 513.25 76.75V76.8125C513.25 83.1458 514.208 88.625 516.125 93.25C518.083 97.8333 520.833 101.375 524.375 103.875C527.958 106.333 532.146 107.562 536.938 107.562C540.562 107.562 543.792 106.896 546.625 105.562C549.5 104.229 551.896 102.312 553.812 99.8125C555.729 97.2708 557.083 94.2083 557.875 90.625L558 90H576.375L576.312 90.6875C575.729 97.0625 573.688 102.729 570.188 107.688C566.729 112.646 562.146 116.542 556.438 119.375C550.729 122.167 544.229 123.562 536.938 123.562ZM617.25 123.375C610.458 123.375 604.583 121.979 599.625 119.188C594.667 116.396 590.833 112.396 588.125 107.188C585.417 101.979 584.062 95.75 584.062 88.5V88.375C584.062 81.1667 585.438 74.9792 588.188 69.8125C590.938 64.6042 594.792 60.6042 599.75 57.8125C604.708 55.0208 610.521 53.625 617.188 53.625C623.896 53.625 629.729 55.0208 634.688 57.8125C639.688 60.5625 643.562 64.5417 646.312 69.75C649.062 74.9167 650.438 81.125 650.438 88.375V88.5C650.438 95.7917 649.062 102.042 646.312 107.25C643.604 112.458 639.771 116.458 634.812 119.25C629.854 122 624 123.375 617.25 123.375ZM617.312 109.062C620.271 109.062 622.833 108.271 625 106.688C627.208 105.062 628.896 102.729 630.062 99.6875C631.271 96.6042 631.875 92.875 631.875 88.5V88.375C631.875 84.0417 631.271 80.3542 630.062 77.3125C628.854 74.2708 627.146 71.9583 624.938 70.375C622.729 68.75 620.146 67.9375 617.188 67.9375C614.271 67.9375 611.708 68.75 609.5 70.375C607.333 71.9583 605.646 74.2708 604.438 77.3125C603.229 80.3542 602.625 84.0417 602.625 88.375V88.5C602.625 92.875 603.208 96.6042 604.375 99.6875C605.583 102.729 607.292 105.062 609.5 106.688C611.708 108.271 614.312 109.062 617.312 109.062ZM659.875 122V55H678.125V66H678.5C680.25 62.1667 682.833 59.1458 686.25 56.9375C689.667 54.7292 693.896 53.625 698.938 53.625C706.312 53.625 712 55.8542 716 60.3125C720.042 64.7292 722.062 70.875 722.062 78.75V122H703.812V82.5C703.812 78.125 702.771 74.75 700.688 72.375C698.646 69.9583 695.583 68.75 691.5 68.75C688.792 68.75 686.438 69.375 684.438 70.625C682.438 71.8333 680.875 73.5417 679.75 75.75C678.667 77.9583 678.125 80.5417 678.125 83.5V122H659.875ZM760.25 123.375C752.833 123.375 747.333 121.812 743.75 118.688C740.167 115.562 738.375 110.417 738.375 103.25V68.75H729.062V55H738.375V38.625H756.812V55H769.062V68.75H756.812V101.25C756.812 104.375 757.5 106.562 758.875 107.812C760.292 109.021 762.375 109.625 765.125 109.625C765.958 109.625 766.688 109.604 767.312 109.562C767.938 109.479 768.521 109.396 769.062 109.312V122.688C768.062 122.854 766.812 123 765.312 123.125C763.854 123.292 762.167 123.375 760.25 123.375ZM779.125 122V55H797.375V66.6875H797.75C798.75 62.5625 800.562 59.3542 803.188 57.0625C805.812 54.7708 809.083 53.625 813 53.625C814 53.625 814.958 53.6875 815.875 53.8125C816.792 53.9375 817.583 54.1042 818.25 54.3125V70.375C817.5 70.0833 816.542 69.8542 815.375 69.6875C814.208 69.4792 812.958 69.375 811.625 69.375C808.625 69.375 806.062 69.9583 803.938 71.125C801.812 72.2917 800.188 74 799.062 76.25C797.938 78.5 797.375 81.25 797.375 84.5V122H779.125ZM844.188 123.062C839.729 123.062 835.812 122.208 832.438 120.5C829.062 118.75 826.417 116.354 824.5 113.312C822.625 110.229 821.688 106.729 821.688 102.812V102.688C821.688 98.6042 822.708 95.125 824.75 92.25C826.792 89.3333 829.75 87.0417 833.625 85.375C837.5 83.7083 842.208 82.6875 847.75 82.3125L873.875 80.6875V92.0625L850.5 93.5625C847 93.7708 844.333 94.6042 842.5 96.0625C840.667 97.4792 839.75 99.375 839.75 101.75V101.875C839.75 104.333 840.688 106.271 842.562 107.688C844.438 109.062 846.958 109.75 850.125 109.75C852.833 109.75 855.25 109.229 857.375 108.188C859.542 107.104 861.229 105.646 862.438 103.812C863.688 101.938 864.312 99.8333 864.312 97.5V77.1875C864.312 74.2292 863.375 71.8958 861.5 70.1875C859.625 68.4375 856.896 67.5625 853.312 67.5625C849.896 67.5625 847.188 68.2708 845.188 69.6875C843.188 71.1042 841.958 72.8958 841.5 75.0625L841.375 75.625H824.688L824.75 74.875C825.083 70.75 826.438 67.0833 828.812 63.875C831.229 60.6667 834.562 58.1667 838.812 56.375C843.104 54.5417 848.188 53.625 854.062 53.625C859.854 53.625 864.875 54.5625 869.125 56.4375C873.375 58.2708 876.667 60.875 879 64.25C881.375 67.625 882.562 71.5625 882.562 76.0625V122H864.312V112H863.938C862.688 114.292 861.062 116.271 859.062 117.938C857.104 119.562 854.875 120.833 852.375 121.75C849.875 122.625 847.146 123.062 844.188 123.062ZM925 123.375C918.208 123.375 912.333 121.958 907.375 119.125C902.417 116.292 898.604 112.271 895.938 107.062C893.271 101.812 891.938 95.6042 891.938 88.4375V88.375C891.938 81.2083 893.271 75.0417 895.938 69.875C898.646 64.6667 902.458 60.6667 907.375 57.875C912.333 55.0417 918.146 53.625 924.812 53.625C930.896 53.625 936.167 54.7708 940.625 57.0625C945.083 59.3125 948.562 62.375 951.062 66.25C953.604 70.125 955 74.4792 955.25 79.3125V79.75H938.312L938.188 79.1875C937.646 75.9792 936.271 73.3125 934.062 71.1875C931.854 69.0208 928.854 67.9375 925.062 67.9375C922.104 67.9375 919.521 68.7708 917.312 70.4375C915.146 72.0625 913.458 74.4167 912.25 77.5C911.083 80.5417 910.5 84.1875 910.5 88.4375V88.5C910.5 92.875 911.083 96.6042 912.25 99.6875C913.458 102.729 915.146 105.062 917.312 106.688C919.521 108.271 922.125 109.062 925.125 109.062C928.792 109.062 931.729 108.042 933.938 106C936.188 103.917 937.625 101.188 938.25 97.8125L938.312 97.25H955.312V97.625C955.021 102.5 953.604 106.875 951.062 110.75C948.521 114.625 945.021 117.708 940.562 120C936.146 122.25 930.958 123.375 925 123.375ZM990.75 123.375C983.333 123.375 977.833 121.812 974.25 118.688C970.667 115.562 968.875 110.417 968.875 103.25V68.75H959.562V55H968.875V38.625H987.312V55H999.562V68.75H987.312V101.25C987.312 104.375 988 106.562 989.375 107.812C990.792 109.021 992.875 109.625 995.625 109.625C996.458 109.625 997.188 109.604 997.812 109.562C998.438 109.479 999.021 109.396 999.562 109.312V122.688C998.562 122.854 997.312 123 995.812 123.125C994.354 123.292 992.667 123.375 990.75 123.375Z" fill="black"/>
<path d="M448.089 25.6357C478.494 25.8168 487.384 11.7652 489 8.60895C467.865 -5.24971 445.434 -2.56684 409.319 18.0429C379.066 35.3151 359.955 72.332 353.194 87.3013C382.671 49.4544 418.174 25.0921 418.547 24.8408C418.7 24.7355 418.868 24.6888 419.037 24.6888C419.306 24.6888 419.568 24.8056 419.737 25.0336C420.018 25.4077 419.959 25.9396 419.597 26.2377C369.773 67.9424 327.666 136.616 318 153L327.824 145.857C329.673 142.531 351.409 103.58 358.146 97.875C364.797 92.2462 370.035 93.3041 370.899 93.538C391.345 94.7304 404.424 80.2112 408.205 75.3656C394.507 76.4119 383.803 70.824 383.33 70.5785C382.939 70.368 382.764 69.9063 382.922 69.4913C383.079 69.0821 383.517 68.8484 383.943 68.9477C403.672 73.6939 418.653 67.3579 427.747 61.203C434.316 56.7549 438.86 51.7632 441.182 48.8874C430.874 52.2308 419.172 49.9512 418.629 49.846C418.186 49.7524 417.883 49.3374 417.935 48.8815C417.987 48.4315 418.378 48.0925 418.833 48.11C443.416 48.9867 459.044 33.1173 463.513 27.8802C454.652 28.8096 448.182 27.4301 447.89 27.3658C447.453 27.2723 447.161 26.8573 447.208 26.413C447.261 25.9688 447.64 25.659 448.089 25.6357Z" fill="#74AA9C"/>
</svg>
