<svg width="32" height="32" viewBox="0 0 32 32" fill="none" xmlns="http://www.w3.org/2000/svg">
<rect width="32" height="32" rx="1" fill="white"/>
<path d="M22.3415 8.78169C26.6579 8.80736 27.92 6.81641 28.1495 6.3692C25.1489 4.40559 21.9646 4.78572 16.8374 7.70588C12.5424 10.1532 9.82931 15.398 8.86946 17.519C13.0542 12.1565 18.0945 8.70467 18.1475 8.66906C18.1691 8.65415 18.193 8.64753 18.2171 8.64753C18.2552 8.64753 18.2924 8.66409 18.3165 8.69639C18.3562 8.74939 18.3479 8.82475 18.2966 8.86699C11.2231 14.7761 5.24529 24.5063 3.87305 26.8277L5.26769 25.8157C5.53022 25.3445 8.61599 19.8255 9.57253 19.0172C10.5167 18.2196 11.2603 18.3695 11.383 18.4027C14.2857 18.5716 16.1425 16.5144 16.6792 15.8278C14.7346 15.9761 13.2149 15.1843 13.1478 15.1496C13.0923 15.1197 13.0675 15.0543 13.0899 14.9955C13.1122 14.9375 13.1743 14.9044 13.2348 14.9185C16.0356 15.591 18.1625 14.6932 19.4536 13.8212C20.3861 13.1909 21.0313 12.4837 21.3608 12.0762C19.8974 12.5499 18.2361 12.2269 18.1591 12.212C18.0961 12.1988 18.0531 12.14 18.0606 12.0754C18.068 12.0116 18.1235 11.9636 18.1881 11.966C21.678 12.0903 23.8967 9.84176 24.5311 9.09971C23.2732 9.2314 22.3546 9.03594 22.3132 9.02683C22.2511 9.01358 22.2097 8.95478 22.2163 8.89184C22.2239 8.82889 22.2776 8.785 22.3415 8.78169Z" fill="#74AA9C"/>
</svg>
